<svg xmlns="http://www.w3.org/2000/svg" version="1.1" xmlns:xlink="http://www.w3.org/1999/xlink" xmlns:svgjs="http://svgjs.dev/svgjs" width="100%" height="100%" viewBox="0 0 1000 600"><rect width="1000" height="600" x="0" y="0" fill="#1cb5bf"/><g><rect width="333.3333333333333" height="333.3333333333333" rx="13.333333333333334" ry="13.333333333333334" y="175.36128955226926" fill="#1d1b1b" transform="matrix(0.8162514907817764,0,0,0.8162514907817762,0,20.819148235549306)" x="153.13911437988278"/><path d="M377.4439949831268 267.0279621587132L377.4439949831268 417.02796618281275L357.5768328951527 417.02796618281275L282.06403540148114 301.42921332579516L282.06403540148114 417.02796618281275L262.16757071455714 417.02796618281275L262.16757071455714 267.0279621587132L282.06403540148114 267.0279621587132L357.78195108780136 383.1248591978775L357.78195108780136 267.0279621587132L377.4439949831268 267.0279621587132Z " fill="white" transform="matrix(0.8162514907817764,0,0,0.8162514907817762,0,20.819148235549306)"/><path d="M588.7447428797091 306.5316684418839L616.3260320181656 389.87450904433473L643.1942578386682 306.5316684418839L662.1617420962417 306.5316684418839L623.2570074686774 415.03138290174803L609.1098312404722 415.03138290174803L569.8057811548537 306.5316684418839L588.7447428797091 306.5316684418839ZM700.1537556768251 306.5316684418839L700.1537556768251 415.03138290174803L681.614109410024 415.03138290174803L681.614109410024 306.5316684418839L700.1537556768251 306.5316684418839ZM680.1024151759617 277.7524329292648L680.1024151759617 277.7524329292648Q680.1024151759617 273.24587275979616 682.8691008496228 270.1369166935172Q685.6357865232839 267.02796062723826 691.0265452070153 267.02796062723826Q696.4458264234648 267.02796062723826 699.2695571625624 270.1369166935172Q702.0647653689415 273.24587275979616 702.0647653689415 277.7524329292648Q702.0647653689415 282.2589930987334 699.2695571625624 285.28238156685785Q696.4458264234648 288.27724750226423 691.0265452070153 288.27724750226423Q685.6357865232839 288.27724750226423 682.8691008496228 285.28238156685785Q680.1024151759617 282.2589930987334 680.1024151759617 277.7524329292648ZM773.3710971643308 401.88249531867825L773.3710971643308 401.88249531867825Q783.2969385502489 401.88249531867825 790.7127970569694 395.8927634478656Q798.1286555636899 389.87450904433473 798.9272864797982 380.83286617267936L798.9272864797982 380.83286617267936L816.468644101464 380.83286617267936Q815.9837610452553 390.15973437151627 810.051074239879 398.5738815233722Q804.1469099672207 407.0165512079463 794.2781136467389 412.03651696634165Q784.3807947935388 417.0279601920189 773.3710971643308 417.0279601920189L773.3710971643308 417.0279601920189Q751.2090892423238 417.0279601920189 738.1172467246903 402.25328824401424Q725.0254042070569 387.4500937632915 725.0254042070569 361.7798143169514L725.0254042070569 361.7798143169514L725.0254042070569 358.6708582506724Q725.0254042070569 342.84085259209604 730.8440008815606 330.4905959251346Q736.6625975560644 318.16886179089136 747.5296825216817 311.35197647125216Q758.4252900200172 304.53509115161296 773.2570070334581 304.53509115161296L773.2570070334581 304.53509115161296Q791.5114279730777 304.53509115161296 803.6049818455757 315.45922118266657Q815.6700131853556 326.3833512137202 816.468644101464 343.8391412372315L816.468644101464 343.8391412372315L798.9272864797982 343.8391412372315Q798.1286555636899 333.314326664232 790.9694998514328 326.52596387731097Q783.7818216064576 319.76612362310806 773.2570070334581 319.76612362310806L773.2570070334581 319.76612362310806Q759.1383533379711 319.76612362310806 751.3517019059146 329.9486678034897Q743.5935730065762 340.13121198387125 743.5935730065762 359.3839215686263L743.5935730065762 359.3839215686263L743.5935730065762 362.8921930929595Q743.5935730065762 381.63149708878774 751.2946568404783 391.756996203733Q759.0242632070984 401.88249531867825 773.3710971643308 401.88249531867825ZM843.964365641766 280.2624158084625L862.5040119085672 280.2624158084625L862.5040119085672 306.5316684418839L882.7550101384578 306.5316684418839L882.7550101384578 320.87850239911614L862.5040119085672 320.87850239911614L862.5040119085672 388.1631570812454Q862.5040119085672 394.6662945409849 865.213652516792 397.94638580357275Q867.9232931250168 401.1979545334425 874.4264305847563 401.1979545334425L874.4264305847563 401.1979545334425Q877.6494767819079 401.1979545334425 883.2684157273846 400.00000815928L883.2684157273846 400.00000815928L883.2684157273846 415.03138290174803Q875.9381248188186 417.0279601920189 869.0356719010249 417.0279601920189L869.0356719010249 417.0279601920189Q856.599847635909 417.0279601920189 850.2678453724785 409.526534087144Q843.964365641766 401.9965854495509 843.964365641766 388.1631570812454L843.964365641766 388.1631570812454L843.964365641766 320.87850239911614L824.1982504680842 320.87850239911614L824.1982504680842 306.5316684418839L843.964365641766 306.5316684418839L843.964365641766 280.2624158084625ZM897.5011595537443 361.0952735317157L897.5011595537443 359.78323702668047Q897.5011595537443 343.8391412372315 903.7761167517385 331.0895691122159Q910.0510739497328 318.36851951991844 921.2319067752497 311.4375440694066Q932.4127396007667 304.53509115161296 946.7310510252809 304.53509115161296L946.7310510252809 304.53509115161296Q968.893058947288 304.53509115161296 982.5838746520027 319.8802137539807Q996.2746903567173 335.22533635634846 996.2746903567173 360.6959580736615L996.2746903567173 360.6959580736615L996.2746903567173 361.97947204597847Q996.2746903567173 377.83800023727304 990.1993908877502 390.4164371659797Q984.1526139515012 402.99487409468634 972.8576909951115 410.0114171433527Q961.59129057144 417.0279601920189 946.9307087543081 417.0279601920189L946.9307087543081 417.0279601920189Q924.8827909631738 417.0279601920189 911.1919752584589 401.6828375896512Q897.5011595537443 386.36623752000156 897.5011595537443 361.0952735317157L897.5011595537443 361.0952735317157ZM916.1548959514181 361.97947204597847L916.1548959514181 361.97947204597847Q916.1548959514181 380.03423525657104 924.5405205705558 390.95836528762464Q932.8976226569754 401.88249531867825 946.9307087543081 401.88249531867825L946.9307087543081 401.88249531867825Q961.0778849825133 401.88249531867825 969.4064645362147 390.81575262403385Q977.7350440899162 379.7204873966713 977.7350440899162 359.78323702668047L977.7350440899162 359.78323702668047Q977.7350440899162 341.92813154511504 969.263851872624 330.86138885047063Q960.7641371226135 319.76612362310806 946.7310510252809 319.76612362310806L946.7310510252809 319.76612362310806Q933.0117127878481 319.76612362310806 924.569043103274 330.6902536541617Q916.1548959514181 341.6429062179335 916.1548959514181 361.97947204597847ZM1071.9734921907025 305.9326952548026L1071.9734921907025 323.18882754928677Q1067.780679881134 322.47576423133285 1062.8462817208929 322.47576423133285L1062.8462817208929 322.47576423133285Q1044.6203833139912 322.47576423133285 1038.0887233215335 338.0205445627277L1038.0887233215335 338.0205445627277L1038.0887233215335 415.03138290174803L1019.5490770547324 415.03138290174803L1019.5490770547324 306.5316684418839L1037.575317732607 306.5316684418839L1037.8890655925065 319.08158283787236Q1047.0162760623161 304.53509115161296 1063.7590027678739 304.53509115161296L1063.7590027678739 304.53509115161296Q1069.1782839843231 304.53509115161296 1071.9734921907025 305.9326952548026L1071.9734921907025 305.9326952548026Z " fill="#fff212" transform="matrix(0.8162514907817764,0,0,0.8162514907817762,0,20.819148235549306)"/></g></svg>